# xmcd CD database file
#
# Track frame offsets:
#	150
#	32317
#	43890
#	79267
#	100622
#	128667
#	150892
#	178617
#
# Disc length: 2752 seconds
#
# Revision: 2
# Processed by: cddbd v1.5.1PL0 Copyright (c) Steve Scherf et al.
# Submitted via: CDex 1.51
#
DISCID=500abe08
DTITLE=Weather Report - This is This
DYEAR=1900
DGENRE=
TTITLE0=This is This
TTITLE1=Face the Fire
TTITLE2=I'll Never Forget You
TTITLE3=Jungle Stuff, Part I
TTITLE4=Man With the Copper Fingers
TTITLE5=Consequently
TTITLE6=Update
TTITLE7=China Blues
EXTD=
EXTT0=
EXTT1=
EXTT2=
EXTT3=
EXTT4=
EXTT5=
EXTT6=
EXTT7=
PLAYORDER=
